#!OML:ASF X:\für Bonn\!DataBase\2005_08_12_Daniel\c3d\Daniel.ASF
:FULLY-SPECIFIED
:DEGREES
111
root 4.27946 16.7192 -2.97123 -153.927 -86.2169 136.592
lowerback 22.7945 -4.90335 4.96111
upperback 8.74179 -6.28055 -4.00783
thorax -4.00175 -3.3045 -5.49381
lowerneck 10.5062 13.2137 -9.08884
upperneck 22.9518 16.1247 -3.96612
head 5.1026 6.25855 0.241044
rclavicle 9.47209e-014 2.38542e-015
rhumerus -53.3507 -7.48278 -72.1651
rradius 21.8624
rwrist 37.666
rhand -13.7371 21.067
rfingers 7.12502
rthumb 12.3826 -8.54625
lclavicle 9.47209e-014 2.38542e-015
lhumerus -16.7705 -12.0928 70.3701
lradius 130.247
lwrist 16.5527
lhand -18.6489 -26.7125
lfingers 7.12502
lthumb 7.64409 3.12933
rfemur -5.26691 -3.39515 21.118
rtibia 46.0588
rfoot -29.2901 -11.7826
rtoes -3.72246
lfemur -24.1799 -2.46457 -17.1058
ltibia 89.3051
lfoot 0.912241 11.8451
ltoes -14.1168
112
root 4.28544 16.7261 -2.96297 -153.567 -86.4068 136.54
lowerback 22.5248 -4.94393 4.97596
upperback 8.58961 -6.3102 -3.86155
thorax -4.02429 -3.31455 -5.34473
lowerneck 10.7498 13.2593 -8.93484
upperneck 22.5945 16.1869 -4.22908
head 4.98454 6.32103 0.114733
rclavicle 2.57426e-014 4.92986e-014
rhumerus -52.8684 -7.42396 -72.3068
rradius 22.31
rwrist 36.4653
rhand -14.132 21.6641
rfingers 7.12502
rthumb 12.0018 -7.97174
lclavicle 2.57426e-014 4.92986e-014
lhumerus -17.1337 -12.0994 70.4624
lradius 130.372
lwrist 16.5368
lhand -18.7604 -26.6928
lfingers 7.12502
lthumb 7.5364 3.15297
rfemur -5.56801 -3.29293 21.2735
rtibia 45.9886
rfoot -29.3393 -11.9768
rtoes -3.57965
lfemur -22.8703 -2.66476 -16.9348
ltibia 87.5259
lfoot -0.503803 12.4373
ltoes -13.3216
113
root 4.29133 16.734 -2.95387 -153.355 -86.5883 136.61
lowerback 22.2725 -4.98572 5.00909
upperback 8.45345 -6.34047 -3.72959
thorax -4.04033 -3.32508 -5.22171
lowerneck 10.9127 13.3068 -8.80162
upperneck 22.2897 16.2584 -4.43218
head 4.88878 6.38536 0.0161594
rclavicle -8.40362e-014 -8.54774e-015
rhumerus -52.3013 -7.45933 -72.4377
rradius 22.6623
rwrist 35.288
rhand -14.4105 22.3515
rfingers 7.12502
rthumb 11.7333 -7.29992
lclavicle -8.40362e-014 -8.54774e-015
lhumerus -17.521 -12.0827 70.5743
lradius 130.482
lwrist 16.5051
lhand -18.9449 -26.7115
lfingers 7.12502
lthumb 7.35832 3.14056
rfemur -5.83225 -3.14754 21.4375
rtibia 45.9152
rfoot -29.4084 -12.1776
rtoes -3.40953
lfemur -21.5633 -2.83137 -16.7451
ltibia 85.7505
lfoot -1.97056 12.9622
ltoes -11.9897
114
root 4.2974 16.7401 -2.94351 -153.631 -86.7607 137.177
lowerback 22.022 -5.0262 5.08129
upperback 8.30557 -6.36097 -3.6025
thorax -4.07215 -3.33066 -5.12874
lowerneck 11.0451 13.3528 -8.68817
upperneck 22.0169 16.327 -4.59317
head 4.80309 6.44607 -0.0641303
rclavicle 1.44616e-014 1.59028e-015
rhumerus -51.7078 -7.50745 -72.6093
rradius 23.0241
rwrist 34.1672
rhand -14.5768 22.9431
rfingers 7.12502
rthumb 11.5729 -6.71734
lclavicle 1.44616e-014 1.59028e-015
lhumerus -17.9798 -12.0556 70.7924
lradius 130.593
lwrist 16.3912
lhand -19.087 -26.729
lfingers 7.12502
lthumb 7.22117 3.12777
rfemur -6.12045 -2.98704 21.6179
rtibia 45.8459
rfoot -29.4614 -12.4025
rtoes -3.23345
lfemur -20.3073 -2.92569 -16.5035
ltibia 83.9851
lfoot -3.45026 13.3786
ltoes -10.4023
115
root 4.30142 16.7485 -2.93265 -153.902 -86.9057 137.722
lowerback 21.7542 -5.05427 5.1373
upperback 8.18275 -6.37282 -3.47938
thorax -4.06508 -3.33192 -5.03616
lowerneck 11.1169 13.3914 -8.57406
upperneck 21.7631 16.4001 -4.77109
head 4.73407 6.50639 -0.144819
rclavicle -1.47101e-014 -5.56597e-015
rhumerus -51.1357 -7.32907 -72.9904
rradius 23.6109
rwrist 32.9473
rhand -14.5732 23.3273
rfingers 7.12502
rthumb 11.5764 -6.333
lclavicle -1.47101e-014 -5.56597e-015
lhumerus -18.3992 -11.9575 71.116
lradius 130.652
lwrist 16.247
lhand -19.1802 -26.7535
lfingers 7.12502
lthumb 7.13123 3.10635
rfemur -6.36394 -2.79364 21.7787
rtibia 45.7561
rfoot -29.5266 -12.6037
rtoes -3.12143
lfemur -19.0748 -2.95972 -16.2661
ltibia 82.2102
lfoot -4.88978 13.7353
ltoes -8.62785
116
root 4.30498 16.7564 -2.92092 -154.617 -87.0549 138.716
lowerback 21.4695 -5.07646 5.23346
upperback 8.05749 -6.36992 -3.3556
thorax -4.0532 -3.32541 -4.97113
lowerneck 11.1911 13.4272 -8.47356
upperneck 21.5444 16.463 -4.90877
head 4.67179 6.55984 -0.210751
rclavicle 1.23743e-014 9.74045e-015
rhumerus -50.5787 -7.17185 -73.3894
rradius 24.2745
rwrist 32.0115
rhand -14.5285 23.4539
rfingers 7.12502
rthumb 11.6195 -6.2039
lclavicle 1.23743e-014 9.74045e-015
lhumerus -18.8253 -11.8318 71.54
lradius 130.728
lwrist 16.1054
lhand -19.1593 -26.728
lfingers 7.12502
lthumb 7.15138 3.1312
rfemur -6.60623 -2.59594 21.9575
rtibia 45.6556
rfoot -29.5914 -12.8129
rtoes -3.04496
lfemur -17.8877 -2.94948 -15.9916
ltibia 80.4374
lfoot -6.23066 13.9538
ltoes -7.22424
117
root 4.30689 16.7658 -2.90832 -155.651 -87.2255 140.016
lowerback 21.1803 -5.11038 5.36311
upperback 7.93988 -6.37728 -3.22894
thorax -4.0341 -3.32376 -4.92013
lowerneck 11.1998 13.4646 -8.36408
upperneck 21.3787 16.5417 -5.04104
head 4.63626 6.61697 -0.270325
rclavicle -1.66482e-014 -2.3059e-014
rhumerus -50.043 -6.79827 -73.9837
rradius 25.0964
rwrist 30.9557
rhand -14.4683 23.2763
rfingers 7.12502
rthumb 11.6775 -6.37828
lclavicle -1.66482e-014 -2.3059e-014
lhumerus -19.2816 -11.7108 72.0293
lradius 130.815
lwrist 15.9461
lhand -19.127 -26.685
lfingers 7.12502
lthumb 7.18257 3.17312
rfemur -6.81912 -2.42857 22.15
rtibia 45.5331
rfoot -29.6545 -13.0206
rtoes -2.97731
lfemur -16.7337 -2.91611 -15.6833
ltibia 78.6644
lfoot -7.58267 14.1035
ltoes -6.62648
118
root 4.30705 16.7753 -2.8956 -156.519 -87.3856 141.151
lowerback 20.8711 -5.13857 5.48873
upperback 7.82302 -6.38069 -3.11274
thorax -4.00383 -3.32002 -4.88101
lowerneck 11.1956 13.5067 -8.25868
upperneck 21.2263 16.6268 -5.15421
head 4.60512 6.67676 -0.32237
rclavicle 3.18801e-014 7.35503e-015
rhumerus -49.5465 -6.40428 -74.6197
rradius 26.0291
rwrist 29.9274
rhand -14.5169 23.1739
rfingers 7.12502
rthumb 11.6306 -6.48329
lclavicle 3.18801e-014 7.35503e-015
lhumerus -19.7457 -11.5637 72.566
lradius 130.914
lwrist 15.7646
lhand -19.0047 -26.5604
lfingers 7.12502
lthumb 7.30063 3.29361
rfemur -7.01051 -2.22418 22.3247
rtibia 45.4051
rfoot -29.7477 -13.2178
rtoes -2.83638
lfemur -15.6052 -2.83092 -15.3761
ltibia 76.8962
lfoot -9.02469 14.2032
ltoes -7.35469
119
root 4.30676 16.7836 -2.88219 -157.909 -87.5533 142.808
lowerback 20.5381 -5.16206 5.65078
upperback 7.71655 -6.37411 -2.99701
thorax -3.9516 -3.31071 -4.86817
lowerneck 11.1916 13.5329 -8.12815
upperneck 21.0668 16.6958 -5.28653
head 4.57508 6.73049 -0.383462
rclavicle -1.73937e-014 2.64384e-014
rhumerus -49.1306 -6.02757 -75.267
rradius 27.1484
rwrist 28.8649
rhand -14.6838 23.1536
rfingers 7.12502
rthumb 11.4697 -6.51261
lclavicle -1.73937e-014 2.64384e-014
lhumerus -20.2038 -11.412 73.1415
lradius 131.032
lwrist 15.62
lhand -18.8542 -26.4354
lfingers 7.12502
lthumb 7.44587 3.41355
rfemur -7.20834 -2.03265 22.5178
rtibia 45.2801
rfoot -29.8405 -13.4274
rtoes -2.73699
lfemur -14.5158 -2.70314 -15.0398
ltibia 75.1476
lfoot -10.5398 14.2803
ltoes -8.80941
120
root 4.30574 16.7915 -2.86752 -159.271 -87.7305 144.428
lowerback 20.2174 -5.19994 5.816
upperback 7.59354 -6.38493 -2.87535
thorax -3.92489 -3.31059 -4.84465
lowerneck 11.2361 13.5826 -8.03146
upperneck 20.8868 16.7817 -5.41874
head 4.52974 6.79154 -0.444033
rclavicle -1.67476e-014 6.4605e-015
rhumerus -48.7515 -5.5382 -75.9546
rradius 28.3597
rwrist 27.7275
rhand -14.8648 23.1902
rfingers 7.12502
rthumb 11.2952 -6.48568
lclavicle -1.67476e-014 6.4605e-015
lhumerus -20.6835 -11.2263 73.7615
lradius 131.142
lwrist 15.4793
lhand -18.7292 -26.2531
lfingers 7.12502
lthumb 7.56653 3.59155
rfemur -7.39537 -1.8697 22.6906
rtibia 45.165
rfoot -29.9373 -13.6228
rtoes -2.74636
lfemur -13.4573 -2.55799 -14.7143
ltibia 73.4278
lfoot -12.0385 14.3318
ltoes -10.5733
121
root 4.30303 16.7986 -2.85202 -160.865 -87.8875 146.27
lowerback 19.8728 -5.22127 5.99934
upperback 7.48584 -6.37585 -2.76934
thorax -3.86944 -3.30007 -4.85618
lowerneck 11.2474 13.6098 -7.90977
upperneck 20.727 16.8476 -5.54846
head 4.49703 6.84316 -0.504074
rclavicle -5.84924e-014 -1.96797e-014
rhumerus -48.4226 -5.01803 -76.6904
rradius 29.6665
rwrist 26.5072
rhand -15.0697 23.2821
rfingers 7.12502
rthumb 11.0975 -6.40444
lclavicle -5.84924e-014 -1.96797e-014
lhumerus -21.1459 -11.037 74.4084
lradius 131.259
lwrist 15.3401
lhand -18.6291 -26.0339
lfingers 7.12502
lthumb 7.66313 3.80724
rfemur -7.57618 -1.72064 22.8437
rtibia 45.0648
rfoot -30.0325 -13.8003
rtoes -2.7599
lfemur -12.3979 -2.35798 -14.3919
ltibia 71.7223
lfoot -13.5435 14.2846
ltoes -12.0019
122
root 4.29926 16.8044 -2.83593 -162.835 -88.0429 148.494
lowerback 19.5096 -5.23743 6.21768
upperback 7.36803 -6.35616 -2.68016
thorax -3.81848 -3.28399 -4.90922
lowerneck 11.2734 13.6281 -7.73512
upperneck 20.5971 16.9059 -5.68589
head 4.47597 6.89211 -0.573526
rclavicle -9.61621e-015 -5.96354e-016
rhumerus -48.1586 -4.56581 -77.4137
rradius 31.048
rwrist 25.3525
rhand -15.2355 23.4693
rfingers 7.12502
rthumb 10.9376 -6.22576
lclavicle -9.61621e-015 -5.96354e-016
lhumerus -21.6191 -10.883 75.0513
lradius 131.363
lwrist 15.1985
lhand -18.6118 -25.8128
lfingers 7.12502
lthumb 7.67984 4.02777
rfemur -7.75633 -1.58194 22.9922
rtibia 44.9697
rfoot -30.1299 -13.9535
rtoes -2.79921
lfemur -11.3756 -2.12468 -14.0687
ltibia 70.0597
lfoot -15.07 14.1059
ltoes -13.4213
